<svg width="112" height="112" viewBox="0 0 112 112" fill="none" xmlns="http://www.w3.org/2000/svg">
<rect width="112" height="112" rx="16" fill="#FFF1F0"/>
<path d="M33.5049 35H78.5049V70H56.0049L43.5049 77.5V70H33.5049V35Z" stroke="#1E1916" stroke-width="5" stroke-linecap="square" stroke-linejoin="round"/>
<path d="M44.75 50.3125C45.9581 50.3125 46.9375 51.2919 46.9375 52.5C46.9375 53.7081 45.9581 54.6875 44.75 54.6875C43.5419 54.6875 42.5625 53.7081 42.5625 52.5C42.5625 51.2919 43.5419 50.3125 44.75 50.3125ZM56 50.3125C57.2081 50.3125 58.1875 51.2919 58.1875 52.5C58.1875 53.7081 57.2081 54.6875 56 54.6875C54.7919 54.6875 53.8125 53.7081 53.8125 52.5C53.8125 51.2919 54.7919 50.3125 56 50.3125ZM67.25 50.3125C68.4581 50.3125 69.4375 51.2919 69.4375 52.5C69.4375 53.7081 68.4581 54.6875 67.25 54.6875C66.0419 54.6875 65.0625 53.7081 65.0625 52.5C65.0625 51.2919 66.0419 50.3125 67.25 50.3125Z" fill="#1E1916" stroke="#1E1916" stroke-width="1.875" stroke-linecap="square"/>
</svg>
