<svg width="112" height="112" viewBox="0 0 112 112" fill="none" xmlns="http://www.w3.org/2000/svg">
<rect width="112" height="112" rx="16" fill="#FEFFE7"/>
<path d="M56 44.75V42.25M56 67.25V69.75M61.4139 48.5C60.3332 47.0055 58.3134 46 56 46H55.3056C52.2373 46 49.75 47.9898 49.75 50.4444V50.6353C49.75 52.391 50.9899 53.996 52.9529 54.7812L59.0471 57.2188C61.0101 58.004 62.25 59.609 62.25 61.3647C62.25 63.9247 59.6559 66 56.4559 66H56C53.6866 66 51.6668 64.9945 50.5861 63.5M78.5 56C78.5 68.4264 68.4264 78.5 56 78.5C43.5736 78.5 33.5 68.4264 33.5 56C33.5 43.5736 43.5736 33.5 56 33.5C68.4264 33.5 78.5 43.5736 78.5 56Z" stroke="#1E1916" stroke-width="5" stroke-linecap="round" stroke-linejoin="round"/>
</svg>
