<svg width="112" height="112" viewBox="0 0 112 112" fill="none" xmlns="http://www.w3.org/2000/svg">
<rect width="112" height="112" rx="16" fill="#EEFFF2"/>
<path fill-rule="evenodd" clip-rule="evenodd" d="M58.5 43.5C59.8807 43.5 61 44.6193 61 46C61 51.7712 62.277 55.3561 64.4605 57.5395C66.6439 59.723 70.2288 61 76 61C77.3807 61 78.5 62.1193 78.5 63.5C78.5 64.8807 77.3807 66 76 66C70.2288 66 66.6439 67.277 64.4605 69.4605C62.277 71.6439 61 75.2288 61 81C61 82.3807 59.8807 83.5 58.5 83.5C57.1193 83.5 56 82.3807 56 81C56 75.2288 54.723 71.6439 52.5395 69.4605C50.3561 67.277 46.7712 66 41 66C39.6193 66 38.5 64.8807 38.5 63.5C38.5 62.1193 39.6193 61 41 61C46.7712 61 50.3561 59.723 52.5395 57.5395C54.723 55.3561 56 51.7712 56 46C56 44.6193 57.1193 43.5 58.5 43.5ZM58.5 57.8336C57.8401 59.03 57.0368 60.1133 56.0751 61.0751C55.1133 62.0368 54.03 62.8401 52.8336 63.5C54.03 64.1599 55.1133 64.9632 56.0751 65.9249C57.0368 66.8867 57.8401 67.97 58.5 69.1664C59.1599 67.97 59.9632 66.8867 60.9249 65.9249C61.8867 64.9632 62.97 64.1599 64.1665 63.5C62.97 62.8401 61.8867 62.0368 60.9249 61.0751C59.9632 60.1133 59.1599 59.03 58.5 57.8336Z" fill="black"/>
<path d="M41 39.75C41 39.0596 40.4404 38.5 39.75 38.5C39.0596 38.5 38.5 39.0596 38.5 39.75C38.5 42.2016 37.957 43.6815 37.0692 44.5692C36.1815 45.457 34.7016 46 32.25 46C31.5596 46 31 46.5596 31 47.25C31 47.9404 31.5596 48.5 32.25 48.5C34.7016 48.5 36.1815 49.043 37.0692 49.9308C37.957 50.8185 38.5 52.2984 38.5 54.75C38.5 55.4404 39.0596 56 39.75 56C40.4404 56 41 55.4404 41 54.75C41 52.2984 41.543 50.8185 42.4308 49.9308C43.3185 49.043 44.7984 48.5 47.25 48.5C47.9404 48.5 48.5 47.9404 48.5 47.25C48.5 46.5596 47.9404 46 47.25 46C44.7984 46 43.3185 45.457 42.4308 44.5692C41.543 43.6815 41 42.2016 41 39.75Z" fill="#1E1916"/>
<path d="M53.5 29.75C53.5 29.0596 52.9404 28.5 52.25 28.5C51.5596 28.5 51 29.0596 51 29.75C51 31.3335 50.6479 32.1885 50.1682 32.6682C49.6885 33.1479 48.8335 33.5 47.25 33.5C46.5596 33.5 46 34.0596 46 34.75C46 35.4404 46.5596 36 47.25 36C48.8335 36 49.6885 36.3521 50.1682 36.8318C50.6479 37.3115 51 38.1665 51 39.75C51 40.4404 51.5596 41 52.25 41C52.9404 41 53.5 40.4404 53.5 39.75C53.5 38.1665 53.8521 37.3115 54.3318 36.8318C54.8115 36.3521 55.6665 36 57.25 36C57.9404 36 58.5 35.4404 58.5 34.75C58.5 34.0596 57.9404 33.5 57.25 33.5C55.6665 33.5 54.8115 33.1479 54.3318 32.6682C53.8521 32.1885 53.5 31.3335 53.5 29.75Z" fill="#1E1916"/>
</svg>
