<svg width="112" height="112" viewBox="0 0 112 112" fill="none" xmlns="http://www.w3.org/2000/svg">
<rect width="112" height="112" rx="16" fill="#FFF1F0"/>
<rect width="112" height="112" rx="16" fill="#EBFDFF"/>
<path d="M63.5 33.5C68.3325 33.5 72.25 37.4175 72.25 42.25C72.25 47.0825 68.3325 51 63.5 51M77.25 75.9999H83.5C83.5 68.6556 78.3296 62.368 71 59.772M48.5 51C43.6675 51 39.75 47.0825 39.75 42.25C39.75 37.4175 43.6675 33.5 48.5 33.5C53.3325 33.5 57.25 37.4175 57.25 42.25C57.25 47.0825 53.3325 51 48.5 51ZM28.5 76C28.5 66.335 37.4543 58.5 48.5 58.5C59.5457 58.5 68.5 66.335 68.5 76H28.5Z" stroke="#1E1916" stroke-width="5" stroke-linecap="round" stroke-linejoin="round"/>
</svg>
